<svg id="visual" viewBox="0 0 900 600" width="900" height="600" xmlns="http://www.w3.org/2000/svg" xmlns:xlink="http://www.w3.org/1999/xlink" version="1.1"><g stroke-width="1" stroke-linejoin="bevel"><path d="M463 327L369 304L432 395Z" fill="#0c2435" stroke="#0c2435"></path><path d="M463 327L362 233L369 304Z" fill="#15384f" stroke="#15384f"></path><path d="M432 395L504 442L463 327Z" fill="#15384f" stroke="#15384f"></path><path d="M228 339L280 428L369 304Z" fill="#19435d" stroke="#19435d"></path><path d="M369 304L280 428L432 395Z" fill="#081a28" stroke="#081a28"></path><path d="M432 395L408 513L504 442Z" fill="#112e42" stroke="#112e42"></path><path d="M588 293L529 243L463 327Z" fill="#246688" stroke="#246688"></path><path d="M463 327L529 243L362 233Z" fill="#15384f" stroke="#15384f"></path><path d="M362 233L263 283L369 304Z" fill="#297ea6" stroke="#297ea6"></path><path d="M280 428L408 513L432 395Z" fill="#112e42" stroke="#112e42"></path><path d="M362 233L268 240L263 283Z" fill="#19435d" stroke="#19435d"></path><path d="M102 272L228 339L263 283Z" fill="#15384f" stroke="#15384f"></path><path d="M263 283L228 339L369 304Z" fill="#00101c" stroke="#00101c"></path><path d="M504 442L588 293L463 327Z" fill="#00101c" stroke="#00101c"></path><path d="M408 513L536 530L504 442Z" fill="#246688" stroke="#246688"></path><path d="M504 442L628 421L588 293Z" fill="#081a28" stroke="#081a28"></path><path d="M190 479L297 541L280 428Z" fill="#15384f" stroke="#15384f"></path><path d="M280 428L297 541L408 513Z" fill="#19435d" stroke="#19435d"></path><path d="M408 513L533 600L536 530Z" fill="#297ea6" stroke="#297ea6"></path><path d="M579 523L628 421L504 442Z" fill="#277297" stroke="#277297"></path><path d="M102 272L172 375L228 339Z" fill="#297ea6" stroke="#297ea6"></path><path d="M228 339L172 375L280 428Z" fill="#1d4e6b" stroke="#1d4e6b"></path><path d="M604 124L481 115L529 243Z" fill="#081a28" stroke="#081a28"></path><path d="M529 243L481 115L362 233Z" fill="#1d4e6b" stroke="#1d4e6b"></path><path d="M202 134L211 192L258 64Z" fill="#081a28" stroke="#081a28"></path><path d="M536 530L579 523L504 442Z" fill="#0c2435" stroke="#0c2435"></path><path d="M373 83L268 240L362 233Z" fill="#205a7a" stroke="#205a7a"></path><path d="M268 240L211 192L263 283Z" fill="#1d4e6b" stroke="#1d4e6b"></path><path d="M172 375L190 479L280 428Z" fill="#112e42" stroke="#112e42"></path><path d="M325 600L357 600L297 541Z" fill="#205a7a" stroke="#205a7a"></path><path d="M297 541L357 600L408 513Z" fill="#277297" stroke="#277297"></path><path d="M536 530L576 600L579 523Z" fill="#0c2435" stroke="#0c2435"></path><path d="M481 115L373 83L362 233Z" fill="#081a28" stroke="#081a28"></path><path d="M224 600L325 600L297 541Z" fill="#0c2435" stroke="#0c2435"></path><path d="M172 375L144 398L190 479Z" fill="#277297" stroke="#277297"></path><path d="M102 272L144 398L172 375Z" fill="#297ea6" stroke="#297ea6"></path><path d="M357 600L533 600L408 513Z" fill="#15384f" stroke="#15384f"></path><path d="M671 202L633 156L588 293Z" fill="#205a7a" stroke="#205a7a"></path><path d="M588 293L633 156L529 243Z" fill="#246688" stroke="#246688"></path><path d="M469 0L384 0L373 83Z" fill="#00101c" stroke="#00101c"></path><path d="M633 156L604 124L529 243Z" fill="#1d4e6b" stroke="#1d4e6b"></path><path d="M258 64L211 192L268 240Z" fill="#205a7a" stroke="#205a7a"></path><path d="M211 192L102 272L263 283Z" fill="#0c2435" stroke="#0c2435"></path><path d="M726 261L671 202L588 293Z" fill="#081a28" stroke="#081a28"></path><path d="M736 525L702 397L628 421Z" fill="#0c2435" stroke="#0c2435"></path><path d="M628 421L702 397L588 293Z" fill="#205a7a" stroke="#205a7a"></path><path d="M736 525L628 421L579 523Z" fill="#246688" stroke="#246688"></path><path d="M533 600L576 600L536 530Z" fill="#081a28" stroke="#081a28"></path><path d="M80 235L102 272L211 192Z" fill="#00101c" stroke="#00101c"></path><path d="M97 600L224 600L190 479Z" fill="#00101c" stroke="#00101c"></path><path d="M190 479L224 600L297 541Z" fill="#19435d" stroke="#19435d"></path><path d="M373 83L258 64L268 240Z" fill="#00101c" stroke="#00101c"></path><path d="M702 397L726 261L588 293Z" fill="#112e42" stroke="#112e42"></path><path d="M671 202L695 138L633 156Z" fill="#15384f" stroke="#15384f"></path><path d="M202 134L133 140L211 192Z" fill="#0c2435" stroke="#0c2435"></path><path d="M215 0L133 140L202 134Z" fill="#277297" stroke="#277297"></path><path d="M469 0L373 83L481 115Z" fill="#19435d" stroke="#19435d"></path><path d="M373 83L296 0L258 64Z" fill="#0c2435" stroke="#0c2435"></path><path d="M133 140L80 235L211 192Z" fill="#00101c" stroke="#00101c"></path><path d="M0 359L57 496L144 398Z" fill="#112e42" stroke="#112e42"></path><path d="M573 0L469 0L481 115Z" fill="#19435d" stroke="#19435d"></path><path d="M633 156L695 138L604 124Z" fill="#00101c" stroke="#00101c"></path><path d="M604 124L573 0L481 115Z" fill="#081a28" stroke="#081a28"></path><path d="M726 261L695 138L671 202Z" fill="#205a7a" stroke="#205a7a"></path><path d="M384 0L296 0L373 83Z" fill="#277297" stroke="#277297"></path><path d="M258 64L215 0L202 134Z" fill="#205a7a" stroke="#205a7a"></path><path d="M702 397L771 374L726 261Z" fill="#15384f" stroke="#15384f"></path><path d="M726 261L806 222L695 138Z" fill="#081a28" stroke="#081a28"></path><path d="M765 501L771 374L702 397Z" fill="#081a28" stroke="#081a28"></path><path d="M699 600L736 525L579 523Z" fill="#0c2435" stroke="#0c2435"></path><path d="M726 0L573 0L604 124Z" fill="#277297" stroke="#277297"></path><path d="M0 359L144 398L102 272Z" fill="#081a28" stroke="#081a28"></path><path d="M144 398L57 496L190 479Z" fill="#277297" stroke="#277297"></path><path d="M576 600L699 600L579 523Z" fill="#1d4e6b" stroke="#1d4e6b"></path><path d="M824 600L765 501L736 525Z" fill="#081a28" stroke="#081a28"></path><path d="M736 525L765 501L702 397Z" fill="#277297" stroke="#277297"></path><path d="M296 0L215 0L258 64Z" fill="#1d4e6b" stroke="#1d4e6b"></path><path d="M900 319L804 264L771 374Z" fill="#00101c" stroke="#00101c"></path><path d="M771 374L804 264L726 261Z" fill="#246688" stroke="#246688"></path><path d="M57 496L97 600L190 479Z" fill="#277297" stroke="#277297"></path><path d="M0 261L0 359L102 272Z" fill="#277297" stroke="#277297"></path><path d="M57 496L0 535L97 600Z" fill="#277297" stroke="#277297"></path><path d="M0 261L102 272L80 235Z" fill="#00101c" stroke="#00101c"></path><path d="M0 261L80 235L0 214Z" fill="#297ea6" stroke="#297ea6"></path><path d="M804 264L806 222L726 261Z" fill="#00101c" stroke="#00101c"></path><path d="M695 138L726 0L604 124Z" fill="#19435d" stroke="#19435d"></path><path d="M0 214L80 235L0 134Z" fill="#19435d" stroke="#19435d"></path><path d="M0 134L80 235L133 140Z" fill="#1d4e6b" stroke="#1d4e6b"></path><path d="M0 359L0 535L57 496Z" fill="#246688" stroke="#246688"></path><path d="M71 0L0 134L133 140Z" fill="#297ea6" stroke="#297ea6"></path><path d="M807 62L726 0L695 138Z" fill="#112e42" stroke="#112e42"></path><path d="M215 0L71 0L133 140Z" fill="#297ea6" stroke="#297ea6"></path><path d="M0 535L0 600L97 600Z" fill="#277297" stroke="#277297"></path><path d="M806 222L807 62L695 138Z" fill="#081a28" stroke="#081a28"></path><path d="M699 600L824 600L736 525Z" fill="#0c2435" stroke="#0c2435"></path><path d="M900 411L900 319L771 374Z" fill="#277297" stroke="#277297"></path><path d="M804 264L900 319L806 222Z" fill="#297ea6" stroke="#297ea6"></path><path d="M806 222L900 168L807 62Z" fill="#081a28" stroke="#081a28"></path><path d="M900 411L771 374L765 501Z" fill="#1d4e6b" stroke="#1d4e6b"></path><path d="M900 520L900 411L765 501Z" fill="#15384f" stroke="#15384f"></path><path d="M900 319L900 168L806 222Z" fill="#205a7a" stroke="#205a7a"></path><path d="M824 600L900 520L765 501Z" fill="#297ea6" stroke="#297ea6"></path><path d="M900 60L815 0L807 62Z" fill="#277297" stroke="#277297"></path><path d="M807 62L815 0L726 0Z" fill="#15384f" stroke="#15384f"></path><path d="M71 0L0 0L0 134Z" fill="#297ea6" stroke="#297ea6"></path><path d="M824 600L900 600L900 520Z" fill="#00101c" stroke="#00101c"></path><path d="M900 168L900 60L807 62Z" fill="#205a7a" stroke="#205a7a"></path><path d="M900 60L900 0L815 0Z" fill="#19435d" stroke="#19435d"></path></g></svg>